<svg width="37" height="37" viewBox="0 0 37 37" fill="none" xmlns="http://www.w3.org/2000/svg">
<g clip-path="url(#clip0_613_2549)">
<path d="M0.430664 0L1.00017 1.13931L0.430664 2.20741V3.34672L2.7087 7.97516L0.430664 12.5324V14.811L2.7087 18.2289L0.430664 21.6469V23.9255L2.7087 28.4827L0.430664 33.1112V36.4579L1.56968 35.8882L2.63751 36.4579H3.77653L8.40379 34.1793L12.9599 36.4579H15.2379L18.655 34.1793L22.072 36.4579H24.3501L28.9061 34.1793L33.5334 36.4579H36.8793L36.3098 35.3898L36.8793 34.2505V33.1112L34.6012 28.4827L36.8793 23.9255V21.6469L34.6012 18.2289L36.8793 14.811V12.5324L34.6012 7.97516L36.8793 3.34672V0L35.8114 0.569654L34.6724 0H33.5334L28.9061 2.27862L24.3501 0H22.072L18.655 2.27862L15.2379 0H12.9599L8.40379 2.27862L3.77653 0H0.430664Z" fill="#EEEEEE"/>
<path d="M3.77653 0L12.9599 9.18568V0H3.77653ZM24.3501 0V9.18568L33.5334 0H24.3501ZM0.430664 3.34672V12.5324H9.614L0.430664 3.34672ZM36.8793 3.34672L27.6959 12.5324H36.8793V3.34672ZM0.430664 23.9255V33.1112L9.614 23.9255H0.430664ZM27.6959 23.9255L36.8793 33.1112V23.9255H27.6959ZM24.3501 27.2722V36.4579H33.5334L24.3501 27.2722ZM12.9599 27.2722L3.77653 36.4579H12.9599V27.2722Z" fill="#0052B4"/>
<path d="M15.2379 0V14.811H0.430664V21.6469H15.2379V36.4579H22.072V21.6469H36.8793V14.811H22.072V0H15.2379Z" fill="#D80027"/>
<path d="M24.3501 23.9255L36.8793 36.4579V34.2505L26.5569 23.9255H24.3501ZM24.3501 12.5324L36.8793 0H34.6724L24.3501 10.325V12.5324ZM12.9599 12.5324L0.430664 0V2.20741L10.753 12.5324H12.9599ZM12.9599 23.9255L0.430664 36.4579H2.63751L12.9599 26.1329V23.9255Z" fill="#D80027"/>
</g>
<defs>
<clipPath id="clip0_613_2549">
<rect x="0.430664" width="36.4486" height="36.4579" rx="18.2243" fill="white"/>
</clipPath>
</defs>
</svg>
