<svg width="31" height="30" viewBox="0 0 31 30" fill="none" xmlns="http://www.w3.org/2000/svg">
<path d="M11.6084 26.666C12.6439 26.666 13.4834 25.8265 13.4834 24.791C13.4834 23.7555 12.6439 22.916 11.6084 22.916C10.5729 22.916 9.7334 23.7555 9.7334 24.791C9.7334 25.8265 10.5729 26.666 11.6084 26.666Z" fill="#475170"/>
<path d="M23 26.666C24.0355 26.666 24.875 25.8265 24.875 24.791C24.875 23.7555 24.0355 22.916 23 22.916C21.9645 22.916 21.125 23.7555 21.125 24.791C21.125 25.8265 21.9645 26.666 23 26.666Z" fill="#475170"/>
<path d="M28.0671 4.47507C27.9895 4.37948 27.8918 4.30225 27.7808 4.24894C27.6699 4.19562 27.5485 4.16755 27.4254 4.16674H10.0754L10.6171 5.8334H26.3337L24.1087 15.8334H11.6087L7.8004 3.77507C7.7592 3.64712 7.68767 3.53103 7.5919 3.43671C7.49613 3.34239 7.37896 3.27264 7.2504 3.2334L3.83373 2.1834C3.72867 2.15112 3.61829 2.13985 3.50887 2.15022C3.39946 2.1606 3.29316 2.19243 3.19604 2.24389C2.99991 2.34781 2.8531 2.5254 2.7879 2.73757C2.7227 2.94974 2.74445 3.17913 2.84838 3.37526C2.95231 3.57139 3.12989 3.7182 3.34206 3.7834L6.33373 4.70007L10.1587 16.7834L8.79206 17.9001L8.68373 18.0084C8.34568 18.398 8.15406 18.8932 8.1419 19.4089C8.12973 19.9246 8.29776 20.4283 8.61706 20.8334C8.8442 21.1096 9.13282 21.3288 9.45985 21.4735C9.78687 21.6183 10.1432 21.6844 10.5004 21.6667H24.4087C24.6297 21.6667 24.8417 21.5789 24.998 21.4227C25.1543 21.2664 25.2421 21.0544 25.2421 20.8334C25.2421 20.6124 25.1543 20.4004 24.998 20.2441C24.8417 20.0879 24.6297 20.0001 24.4087 20.0001H10.3671C10.2711 19.9968 10.1776 19.9688 10.0956 19.9189C10.0136 19.8689 9.94589 19.7986 9.89898 19.7149C9.85206 19.6311 9.82755 19.5366 9.82779 19.4406C9.82804 19.3446 9.85305 19.2503 9.9004 19.1667L11.9087 17.5001H24.7754C24.968 17.5048 25.1563 17.4426 25.3083 17.3241C25.4602 17.2056 25.5664 17.0381 25.6087 16.8501L28.2504 5.1834C28.2757 5.05917 28.2724 4.93079 28.2406 4.80804C28.2089 4.68529 28.1495 4.57141 28.0671 4.47507Z" fill="#D1242D"/>
</svg>
