<svg width="30" height="25" viewBox="0 0 30 25" fill="none" xmlns="http://www.w3.org/2000/svg">
<path d="M1.07143 0H28.9286C29.5212 0 30 0.490149 30 1.09684V23.0336C30 23.6403 29.5212 24.1304 28.9286 24.1304H1.07143C0.478796 24.1304 9.53674e-07 23.6403 9.53674e-07 23.0336V1.09684C9.53674e-07 0.490149 0.478796 0 1.07143 0ZM3.77679 3.73268L14.3404 12.1475C14.6016 12.3566 14.9665 12.3566 15.2277 12.1475L25.7946 3.73268C25.8345 3.70121 25.8637 3.65777 25.8782 3.60844C25.8927 3.55912 25.8918 3.50639 25.8755 3.45763C25.8593 3.40888 25.8285 3.36655 25.7876 3.33658C25.7467 3.30662 25.6976 3.29051 25.6473 3.29051H3.92411C3.87379 3.29051 3.82473 3.30662 3.78381 3.33658C3.74289 3.36655 3.71215 3.40888 3.69591 3.45763C3.67966 3.50639 3.67873 3.55912 3.69323 3.60844C3.70774 3.65777 3.73695 3.70121 3.77679 3.73268V3.73268Z" fill="#475170"/>
</svg>
