<svg width="30" height="32" viewBox="0 0 30 32" fill="none" xmlns="http://www.w3.org/2000/svg">
<path fill-rule="evenodd" clip-rule="evenodd" d="M8.81591 0.0943902C10.4155 0.0171618 10.9255 0 15 0C19.0745 0 19.5845 0.018592 21.1827 0.0943902C22.7809 0.170188 23.8718 0.437628 24.8264 0.8252C25.8259 1.22135 26.7327 1.84061 27.4827 2.6415C28.2464 3.42665 28.8355 4.37628 29.2118 5.42601C29.5827 6.42712 29.8364 7.57124 29.91 9.24452C29.9836 10.925 30 11.4598 30 15.7317C30 20.005 29.9823 20.5399 29.91 22.2175C29.8377 23.8907 29.5827 25.0349 29.2118 26.036C28.8354 27.0858 28.2454 28.037 27.4827 28.8233C26.7327 29.6242 25.8259 30.2421 24.8264 30.6368C23.8718 31.0258 22.7809 31.2918 21.1855 31.369C19.5845 31.4463 19.0745 31.4634 15 31.4634C10.9255 31.4634 10.4155 31.4448 8.81591 31.369C7.22045 31.2932 6.12955 31.0258 5.175 30.6368C4.17398 30.242 3.26703 29.6232 2.51727 28.8233C1.75415 28.0377 1.16361 27.087 0.786818 26.0374C0.417273 25.0363 0.163636 23.8922 0.09 22.2189C0.0163636 20.5385 0 20.0036 0 15.7317C0 11.4584 0.0177273 10.9235 0.09 9.24738C0.162273 7.57124 0.417273 6.42712 0.786818 5.42601C1.16417 4.37639 1.75516 3.42567 2.51864 2.64007C3.26733 1.8399 4.17337 1.22056 5.17364 0.8252C6.12818 0.437628 7.21909 0.171619 8.81455 0.0943902H8.81591ZM21.0614 2.9261C19.4795 2.8503 19.005 2.83457 15 2.83457C10.995 2.83457 10.5205 2.8503 8.93864 2.9261C7.47545 2.99618 6.68182 3.25217 6.15273 3.46813C5.45318 3.75416 4.95273 4.0931 4.42773 4.64371C3.93006 5.15149 3.54706 5.76965 3.30682 6.45286C3.10091 7.00776 2.85682 7.84011 2.79 9.37467C2.71773 11.0336 2.70273 11.5313 2.70273 15.7317C2.70273 19.9321 2.71773 20.4298 2.79 22.0887C2.85682 23.6233 3.10091 24.4557 3.30682 25.0106C3.54682 25.6927 3.93 26.312 4.42773 26.8197C4.91182 27.3417 5.50227 27.7436 6.15273 27.9953C6.68182 28.2112 7.47545 28.4672 8.93864 28.5373C10.5205 28.6131 10.9936 28.6288 15 28.6288C19.0064 28.6288 19.4795 28.6131 21.0614 28.5373C22.5245 28.4672 23.3182 28.2112 23.8473 27.9953C24.5468 27.7093 25.0473 27.3703 25.5723 26.8197C26.07 26.312 26.4532 25.6927 26.6932 25.0106C26.8991 24.4557 27.1432 23.6233 27.21 22.0887C27.2823 20.4298 27.2973 19.9321 27.2973 15.7317C27.2973 11.5313 27.2823 11.0336 27.21 9.37467C27.1432 7.84011 26.8991 7.00776 26.6932 6.45286C26.4205 5.71919 26.0973 5.19432 25.5723 4.64371C25.0881 4.12181 24.4987 3.72014 23.8473 3.46813C23.3182 3.25217 22.5245 2.99618 21.0614 2.9261V2.9261ZM13.0841 20.5814C14.1541 21.0485 15.3455 21.1115 16.4549 20.7597C17.5643 20.4079 18.5228 19.6631 19.1667 18.6524C19.8107 17.6418 20.1001 16.428 19.9855 15.2184C19.871 14.0089 19.3596 12.8785 18.5386 12.0205C18.0153 11.472 17.3826 11.052 16.6859 10.7907C15.9893 10.5295 15.246 10.4335 14.5098 10.5097C13.7735 10.5858 13.0625 10.8322 12.4279 11.2312C11.7933 11.6301 11.251 12.1717 10.84 12.8168C10.4289 13.462 10.1593 14.1947 10.0507 14.9622C9.94206 15.7298 9.99702 16.513 10.2116 17.2556C10.4263 17.9981 10.7952 18.6816 11.2919 19.2566C11.7886 19.8317 12.4007 20.2842 13.0841 20.5814ZM9.54818 10.0139C10.2641 9.26308 11.1141 8.66746 12.0495 8.26109C12.9849 7.85473 13.9875 7.64557 15 7.64557C16.0125 7.64557 17.0151 7.85473 17.9505 8.26109C18.8859 8.66746 19.7359 9.26308 20.4518 10.0139C21.1678 10.7648 21.7357 11.6562 22.1231 12.6373C22.5106 13.6183 22.71 14.6698 22.71 15.7317C22.71 16.7936 22.5106 17.8451 22.1231 18.8261C21.7357 19.8072 21.1678 20.6986 20.4518 21.4495C19.0059 22.9659 17.0448 23.8178 15 23.8178C12.9552 23.8178 10.9941 22.9659 9.54818 21.4495C8.10227 19.933 7.28997 17.8763 7.28997 15.7317C7.28997 13.5871 8.10227 11.5304 9.54818 10.0139V10.0139ZM24.42 8.8498C24.5974 8.67428 24.7394 8.4632 24.8377 8.22908C24.9359 7.99495 24.9884 7.74253 24.9919 7.48676C24.9955 7.231 24.9501 6.97708 24.8584 6.74005C24.7667 6.50302 24.6306 6.28769 24.4581 6.10682C24.2857 5.92594 24.0804 5.7832 23.8544 5.68704C23.6283 5.59087 23.3862 5.54325 23.1424 5.54698C22.8985 5.5507 22.6578 5.60571 22.4346 5.70875C22.2113 5.81178 22.0101 5.96074 21.8427 6.14681C21.5172 6.50868 21.339 6.98934 21.346 7.48676C21.3529 7.98418 21.5444 8.4592 21.8798 8.81096C22.2152 9.16273 22.6681 9.36355 23.1424 9.37081C23.6167 9.37806 24.075 9.19116 24.42 8.8498V8.8498Z" fill="#475170"/>
</svg>
