<svg width="43" height="37" viewBox="0 0 43 37" fill="none" xmlns="http://www.w3.org/2000/svg">
<path d="M42.9 12.8C42.9 18.5333 41.9333 23.5667 40 27.9C38 32.2333 34.9667 35.2667 30.9 37C29.3667 35.4667 28.0333 34.2 26.9 33.2C25.7 32.2667 24.4 31.4333 23 30.7C26.4 29.4333 28.9 27.9333 30.5 26.2C32.0333 24.4667 33.0333 22.4333 33.5 20.1H23.4L23.4 0.100002H42.8L42.9 12.8ZM19.9 12.8C19.9 18.5333 18.9333 23.5667 17 27.9C15 32.2333 11.9667 35.2667 7.9 37C6.36667 35.4667 5.03333 34.2 3.9 33.2C2.7 32.2667 1.4 31.4333 -8.34465e-07 30.7C3.4 29.4333 5.9 27.9333 7.5 26.2C9.03333 24.4667 10.0333 22.4333 10.5 20.1H1.4V0.100002L19.8 0.100002L19.9 12.8Z" fill="#D1242D"/>
</svg>
