<svg width="43" height="37" viewBox="0 0 43 37" fill="none" xmlns="http://www.w3.org/2000/svg">
<path d="M0.1 24.2C0.1 18.4667 1.06667 13.4333 3 9.1C5 4.76666 8.03333 1.73333 12.1 -4.76837e-07C13.6333 1.53333 14.9667 2.8 16.1 3.8C17.3 4.73333 18.6 5.56666 20 6.3C16.6 7.56666 14.1 9.06666 12.5 10.8C10.9667 12.5333 9.96667 14.5667 9.5 16.9H19.6V36.9H0.2L0.1 24.2ZM23.1 24.2C23.1 18.4667 24.0667 13.4333 26 9.1C28 4.76666 31.0333 1.73333 35.1 -4.76837e-07C36.6333 1.53333 37.9667 2.8 39.1 3.8C40.3 4.73333 41.6 5.56666 43 6.3C39.6 7.56666 37.1 9.06666 35.5 10.8C33.9667 12.5333 32.9667 14.5667 32.5 16.9H41.6V36.9H23.2L23.1 24.2Z" fill="#D1242D"/>
</svg>
